<svg xmlns="http://www.w3.org/2000/svg" viewBox="332 2584 76 76"><defs><style>.a{fill:none;}.b{fill:#95989a;}</style></defs><g transform="translate(332 2584)"><path class="a" d="M0,0H76V76H0Z" transform="translate(0 0)"/><path class="b" d="M14.667,57a3.176,3.176,0,0,0,3.167,3.167H21V71.25a4.75,4.75,0,1,0,9.5,0V60.167h6.333V71.25a4.75,4.75,0,0,0,9.5,0V60.167H49.5A3.176,3.176,0,0,0,52.667,57V25.333h-38ZM6.75,25.333A4.744,4.744,0,0,0,2,30.083V52.25a4.75,4.75,0,1,0,9.5,0V30.083A4.744,4.744,0,0,0,6.75,25.333Zm53.833,0a4.744,4.744,0,0,0-4.75,4.75V52.25a4.75,4.75,0,0,0,9.5,0V30.083A4.744,4.744,0,0,0,60.583,25.333ZM44.845,6.84l4.117-4.117a1.568,1.568,0,0,0,0-2.248,1.568,1.568,0,0,0-2.248,0L42.027,5.162a18.492,18.492,0,0,0-8.36-1.995,18.758,18.758,0,0,0-8.423,1.995L20.525.475a1.568,1.568,0,0,0-2.248,0,1.568,1.568,0,0,0,0,2.248l4.148,4.148a18.947,18.947,0,0,0-7.758,15.295h38A18.891,18.891,0,0,0,44.845,6.84ZM27.333,15.833H24.167V12.667h3.167Zm15.833,0H40V12.667h3.167Z" transform="translate(4.333)"/></g></svg>