<svg xmlns="http://www.w3.org/2000/svg" xmlns:xlink="http://www.w3.org/1999/xlink" viewBox="101.222 85.912 1016.87 750.944"><defs><style>.a,.b{opacity:0.1;}.a{fill:url(#a);}.b{clip-path:url(#b);}.c{fill:#fff;stroke:#95989a;}.d{stroke:none;}.e{fill:none;}</style><linearGradient id="a" x1="0.5" y1="0.735" x2="0.5" y2="1" gradientUnits="objectBoundingBox"><stop offset="0" stop-color="#fff"/><stop offset="1" stop-color="#c6c6c6"/></linearGradient><clipPath id="b"><path class="a" d="M765.079,744.505c-19-14.286-36.441-8.11-50.51-1.935-12.583,5.522-22.466,11.046-28.345,1.935-5.806-9-18.852-4.933-31.111-.869-14.038,4.653-27.045,9.306-26.965-5.651.149-28.019-51.705-60.956-20.228-61.706s-2.29-60.393,13.389-55.584,21.31,10.16,21.31,10.16,27.1-64.859,85.136-34.447,25.5-10.932,54.681-12.626c9.463-.55,16.961,4.43,24.41,9.409,15.521,10.375,30.824,20.75,63.231-18.9,47.958-58.677,146.73,32.027,115.737,66.079s41.7,15.925-10.579,49.073-66.153,45.282-72.059,21.224c-2.969-12.091-8.635-2.241-17.3,7.609-8.57,9.748-20.071,19.5-34.791,7.98-14.489-11.336-26.782-.714-39.779,9.908-9.039,7.388-18.42,14.776-29.116,14.777C776.858,750.944,771.194,749.1,765.079,744.505ZM173.255,591.283c-10.553-7.936-20.245-4.505-28.062-1.075-6.99,3.068-12.481,6.136-15.747,1.075-3.226-5-10.473-2.74-17.285-.483-7.8,2.586-15.025,5.17-14.981-3.139.083-15.566-28.725-33.865-11.238-34.282s-1.272-33.552,7.438-30.881,11.84,5.645,11.84,5.645,15.054-36.033,47.3-19.138,14.166-6.073,30.38-7.015c5.257-.305,9.423,2.461,13.561,5.227,8.623,5.764,17.124,11.528,35.13-10.5,26.645-32.6,81.518,17.794,64.3,36.712s23.167,8.847-5.877,27.264-36.752,25.157-40.034,11.791c-1.65-6.718-4.8-1.246-9.608,4.227-4.761,5.416-11.152,10.831-19.329,4.433-8.051-6.3-14.88-.4-22.1,5.505-5.022,4.1-10.234,8.208-16.176,8.209A15.649,15.649,0,0,1,173.255,591.283Zm424-136c-10.553-7.936-20.245-4.505-28.062-1.075-6.99,3.068-12.481,6.136-15.747,1.075-3.226-5-10.473-2.741-17.284-.483-7.8,2.586-15.025,5.171-14.98-3.139.083-15.566-28.725-33.865-11.238-34.282s-1.272-33.552,7.439-30.881,11.839,5.645,11.839,5.645,15.054-36.033,47.3-19.138,14.165-6.073,30.379-7.015c5.257-.305,9.424,2.461,13.561,5.227,8.624,5.764,17.125,11.528,35.13-10.5,26.644-32.6,81.519,17.794,64.3,36.712s23.167,8.847-5.877,27.264-36.752,25.157-40.034,11.791c-1.65-6.718-4.8-1.246-9.608,4.227-4.761,5.416-11.152,10.832-19.329,4.433-8.05-6.3-14.88-.4-22.1,5.505-5.022,4.1-10.234,8.208-16.176,8.209A15.65,15.65,0,0,1,597.255,455.283Zm266.943-92.7c-12.626-9.5-24.221-5.391-33.573-1.286-8.363,3.67-14.932,7.341-18.839,1.286-3.859-5.98-12.531-3.28-20.678-.579-9.331,3.093-17.976,6.186-17.922-3.756.1-18.623-34.366-40.514-13.445-41.013s-1.522-40.14,8.9-36.944,14.163,6.753,14.163,6.753,18.011-43.108,56.587-22.9,16.947-7.266,36.345-8.392c6.289-.365,11.273,2.944,16.224,6.253,10.317,6.9,20.488,13.792,42.027-12.561,31.876-39,97.525,21.288,76.926,43.92s27.716,10.585-7.031,32.618-43.97,30.1-47.9,14.106c-1.974-8.037-5.739-1.49-11.5,5.058-5.7,6.479-13.341,12.958-23.124,5.3-9.631-7.535-17.8-.474-26.44,6.586-6.008,4.91-12.243,9.82-19.352,9.821C872.027,366.86,868.263,365.638,864.2,362.581ZM571.333,194.269c-7.646-5.749-14.666-3.263-20.328-.778-5.064,2.223-9.042,4.445-11.408.778-2.337-3.622-7.588-1.985-12.522-.35-5.65,1.873-10.885,3.746-10.852-2.273.06-11.277-20.809-24.533-8.141-24.835s-.921-24.305,5.389-22.37,8.576,4.089,8.576,4.089,10.905-26.1,34.265-13.864,10.262-4.4,22.007-5.081c3.808-.221,6.826,1.782,9.824,3.786,6.247,4.175,12.406,8.351,25.448-7.606,19.3-23.615,59.054,12.891,46.58,26.6s16.783,6.409-4.257,19.751-26.624,18.224-29,8.542c-1.2-4.866-3.476-.9-6.961,3.062-3.449,3.923-8.078,7.846-14,3.212-5.831-4.563-10.779-.288-16.01,3.987-3.638,2.974-7.413,5.947-11.718,5.947A11.337,11.337,0,0,1,571.333,194.269Zm-504-79c-7.646-5.75-14.666-3.264-20.328-.778-5.064,2.222-9.041,4.445-11.408.778-2.336-3.621-7.588-1.985-12.522-.35-5.65,1.873-10.885,3.745-10.852-2.274.06-11.277-20.809-24.533-8.141-24.835S3.161,63.5,9.471,65.44s8.576,4.089,8.576,4.089,10.905-26.1,34.265-13.864,10.262-4.4,22.007-5.081c3.809-.221,6.826,1.783,9.824,3.786,6.247,4.176,12.406,8.352,25.448-7.6,19.3-23.616,59.053,12.89,46.579,26.594s16.783,6.409-4.257,19.751-26.624,18.224-29,8.542c-1.2-4.866-3.476-.9-6.961,3.062-3.449,3.923-8.078,7.846-14,3.212-5.831-4.562-10.778-.287-16.009,3.988-3.638,2.974-7.414,5.947-11.718,5.947A11.337,11.337,0,0,1,67.333,115.269Zm786-39C845.687,70.519,838.666,73,833,75.49c-5.064,2.222-9.041,4.445-11.408.778-2.337-3.622-7.588-1.985-12.522-.35-5.649,1.873-10.885,3.746-10.852-2.273.06-11.277-20.809-24.533-8.141-24.835s-.922-24.306,5.388-22.37,8.577,4.089,8.577,4.089,10.905-26.1,34.264-13.864,10.262-4.4,22.007-5.081c3.808-.221,6.826,1.782,9.824,3.786,6.247,4.175,12.406,8.351,25.448-7.606,19.3-23.615,59.053,12.89,46.58,26.6s16.782,6.409-4.258,19.75-26.624,18.223-29,8.541c-1.2-4.866-3.476-.9-6.961,3.063-3.449,3.923-8.078,7.846-14,3.212-5.832-4.563-10.779-.288-16.01,3.987-3.638,2.974-7.414,5.947-11.718,5.947A11.337,11.337,0,0,1,853.332,76.269Z" transform="translate(101.222 85.912)"/></clipPath></defs><g class="b"><g class="c"><rect class="d" width="1280" height="800"/><rect class="e" x="0.5" y="0.5" width="1279" height="799"/></g></g></svg>