<svg xmlns="http://www.w3.org/2000/svg" xmlns:xlink="http://www.w3.org/1999/xlink" viewBox="175 1550 180 180"><defs><style>.a{fill:url(#a);}.b{fill:none;}.c{fill:#fff;}</style><linearGradient id="a" x2="1" y2="1" gradientUnits="objectBoundingBox"><stop offset="0" stop-color="#fa709a"/><stop offset="1" stop-color="#fee140"/></linearGradient></defs><g transform="translate(26)"><rect class="a" width="180" height="180" rx="3" transform="translate(149 1550)"/><g transform="translate(191 1592)"><path class="b" d="M0,0H96V96H0Z"/><path class="c" d="M41.96,2A40,40,0,1,0,82,42,39.98,39.98,0,0,0,41.96,2ZM42,74A32,32,0,1,1,74,42,31.991,31.991,0,0,1,42,74ZM56,38a6,6,0,1,0-6-6A5.992,5.992,0,0,0,56,38ZM28,38a6,6,0,1,0-6-6A5.992,5.992,0,0,0,28,38ZM42,64A21.985,21.985,0,0,0,62.44,50H21.56A21.985,21.985,0,0,0,42,64Z" transform="translate(6 6)"/></g></g></svg>