<svg xmlns="http://www.w3.org/2000/svg" viewBox="1647.904 3170.904 57.096 57.096"><defs><style>.a{fill:#fff;fill-rule:evenodd;}</style></defs><path class="a" d="M41.371,25.485V25.48c.478,0,.956.01,1.435,0a1.164,1.164,0,0,0,1.115-1.158V21.57a1.172,1.172,0,0,0-1.176-1.181H40a1.174,1.174,0,0,0-1.176,1.183c0,.909,0,1.818,0,2.726a1.333,1.333,0,0,0,.069.405,1.173,1.173,0,0,0,1.15.783Zm-8.822,1.179a5.882,5.882,0,1,0,5.88,6.012A5.882,5.882,0,0,0,32.548,26.664ZM21.173,29.8v.078q0,6.445,0,12.89a1.175,1.175,0,0,0,1.153,1.15h20.44a1.173,1.173,0,0,0,1.156-1.153q0-6.436,0-12.873V29.8H41.151a9.083,9.083,0,0,1,.358,3.82,8.871,8.871,0,0,1-1.252,3.619,9.023,9.023,0,0,1-12.109,3.184,8.818,8.818,0,0,1-3.507-3.533,9.016,9.016,0,0,1-.7-7.09Zm22.99,17.261c.151-.025.3-.047.452-.079A3.143,3.143,0,0,0,47,44.553c.024-.13.043-.26.064-.389V20.933c-.02-.127-.038-.255-.062-.382a3.141,3.141,0,0,0-2.645-2.491c-.055-.007-.108-.019-.162-.029H20.9c-.14.026-.282.045-.42.076A3.131,3.131,0,0,0,18.06,20.74c-.008.054-.019.108-.028.163V44.2c.027.147.048.3.081.442a3.142,3.142,0,0,0,2.636,2.4c.061.008.124.02.186.029ZM32.548,61.1A28.548,28.548,0,1,1,61.1,32.548,28.549,28.549,0,0,1,32.548,61.1Z" transform="translate(1643.904 3166.904)"/></svg>