<svg xmlns="http://www.w3.org/2000/svg" viewBox="519 2584 61.888 76"><defs><style>.a{fill:#95989a;}</style></defs><g transform="translate(510.685 2579.626)"><path class="a" d="M60.006,38.3c-.1-9.627,7.851-14.244,8.206-14.478a17.756,17.756,0,0,0-13.9-7.528c-5.916-.6-11.55,3.485-14.552,3.485s-7.633-3.4-12.539-3.31A18.6,18.6,0,0,0,11.5,26c-6.7,11.627-1.715,28.859,4.817,38.3,3.193,4.613,7,9.8,12,9.613,4.815-.19,6.632-3.114,12.452-3.114s7.455,3.114,12.548,3.017c5.178-.094,8.461-4.7,11.627-9.332A42.03,42.03,0,0,0,70.2,53.669,16.791,16.791,0,0,1,60.006,38.3Z" transform="translate(0 6.46)"/><path class="a" d="M39.591,16.508A16.764,16.764,0,0,0,43.547,4.374a17.031,17.031,0,0,0-11.2,5.754c-2.459,2.852-4.61,7.392-4.033,11.76C32.582,22.219,36.932,19.718,39.591,16.508Z" transform="translate(10.845 0)"/></g></svg>