<svg xmlns="http://www.w3.org/2000/svg" xmlns:xlink="http://www.w3.org/1999/xlink" viewBox="925 1550 180 180"><defs><style>.a{fill:url(#a);}.b{fill:none;}.c{fill:#fff;}</style><linearGradient id="a" x2="1" y2="1" gradientUnits="objectBoundingBox"><stop offset="0" stop-color="#4481eb"/><stop offset="1" stop-color="#04befe"/></linearGradient></defs><g transform="translate(256)"><path class="a" d="M3,0H177a3,3,0,0,1,3,3V177a3,3,0,0,1-3,3H3a3,3,0,0,1-3-3V3A3,3,0,0,1,3,0Z" transform="translate(669 1550)"/><g transform="translate(711 1592)"><path class="b" d="M0,0H96V96H0Z"/><path class="c" d="M37.82,18.6c7.12,0,9.76,3.4,10,8.4h8.84c-.28-6.88-4.48-13.2-12.84-15.24V3h-12v8.64A23.712,23.712,0,0,0,25.9,13.8l5.88,5.88a15.685,15.685,0,0,1,6.04-1.08ZM9.14,7.24,4.06,12.32,17.82,26.08c0,8.32,6.24,12.84,15.64,15.64L47.5,55.76c-1.36,1.92-4.2,3.64-9.68,3.64-8.24,0-11.48-3.68-11.92-8.4H17.1c.48,8.76,7.04,13.68,14.72,15.32V75h12V66.4a20.011,20.011,0,0,0,9.8-4.48L62.5,70.8l5.08-5.08Z" transform="translate(12.18 9)"/></g></g></svg>