<svg xmlns="http://www.w3.org/2000/svg" xmlns:xlink="http://www.w3.org/1999/xlink" viewBox="788 874 220.634 400.676"><defs><style>.a,.q{fill:#333;}.b{fill:rgba(255,255,255,0.5);stroke:rgba(0,0,0,0.2);}.c{clip-path:url(#c);}.d{fill:#f8f8f8;}.e{fill:url(#d);}.f,.g{fill:#fff;}.f{font-size:11px;}.f,.m,.p,.q,.r{font-family:HelveticaNeue, Helvetica Neue;}.h,.y{fill:none;}.i,.s,.v,.x{fill-rule:evenodd;}.i{opacity:0.54;}.j,.p{fill:#95989a;}.j,.o,.p,.q,.r{font-size:7px;}.j{font-family:HelveticaNeue-Medium, Helvetica Neue;}.j,.w{font-weight:500;}.k,.m{fill:#39c0e8;}.l{fill:#f2f2f2;}.m{font-size:5px;}.n{fill:#c7c7c7;font-size:2px;}.n,.o{font-family:HelveticaNeue-Light, Helvetica Neue;font-weight:300;}.o{fill:#555;}.r{fill:#bdc1c4;}.s{fill:url(#q);}.t{stroke:rgba(0,0,0,0);fill:url(#r);}.u,.w{font-size:4px;}.u{font-family:SFProText-Regular, SF Pro Text;}.w{font-family:SFProText-Medium, SF Pro Text;}.x{fill:rgba(0,0,0,0.5);}.y{stroke:#000;opacity:0.4;}.z{stroke:none;}.aa{filter:url(#o);}.ab{filter:url(#m);}.ac{filter:url(#k);}.ad{filter:url(#i);}.ae{filter:url(#g);}.af{filter:url(#e);}.ag{filter:url(#a);}</style><filter id="a" x="788" y="874" width="220.634" height="400.676" filterUnits="userSpaceOnUse"><feOffset dy="3" input="SourceAlpha"/><feGaussianBlur stdDeviation="3" result="b"/><feFlood flood-opacity="0.161"/><feComposite operator="in" in2="b"/><feComposite in="SourceGraphic"/></filter><clipPath id="c"><rect width="180" height="316" rx="2" transform="translate(1997 910)"/></clipPath><linearGradient id="d" x1="-0.162" y1="-0.229" x2="0.931" y2="0.741" gradientUnits="objectBoundingBox"><stop offset="0" stop-color="#39ff5f"/><stop offset="1" stop-color="#39c0e8"/></linearGradient><filter id="e" x="872.125" y="979.75" width="51.75" height="51.75" filterUnits="userSpaceOnUse"><feOffset dy="3" input="SourceAlpha"/><feGaussianBlur stdDeviation="3" result="f"/><feFlood flood-opacity="0.161"/><feComposite operator="in" in2="f"/><feComposite in="SourceGraphic"/></filter><filter id="g" x="809.125" y="1075.188" width="177.75" height="46.688" filterUnits="userSpaceOnUse"><feOffset input="SourceAlpha"/><feGaussianBlur stdDeviation="1.5" result="h"/><feFlood flood-opacity="0.161"/><feComposite operator="in" in2="h"/><feComposite in="SourceGraphic"/></filter><filter id="i" x="809.125" y="1118.5" width="177.75" height="46.688" filterUnits="userSpaceOnUse"><feOffset input="SourceAlpha"/><feGaussianBlur stdDeviation="1.5" result="j"/><feFlood flood-opacity="0.161"/><feComposite operator="in" in2="j"/><feComposite in="SourceGraphic"/></filter><filter id="k" x="809.125" y="1161.813" width="177.75" height="46.688" filterUnits="userSpaceOnUse"><feOffset input="SourceAlpha"/><feGaussianBlur stdDeviation="1.5" result="l"/><feFlood flood-opacity="0.161"/><feComposite operator="in" in2="l"/><feComposite in="SourceGraphic"/></filter><filter id="m" x="809.125" y="1031.875" width="177.75" height="31.5" filterUnits="userSpaceOnUse"><feOffset input="SourceAlpha"/><feGaussianBlur stdDeviation="1.5" result="n"/><feFlood flood-opacity="0.161"/><feComposite operator="in" in2="n"/><feComposite in="SourceGraphic"/></filter><filter id="o" x="809.125" y="1210.75" width="177.75" height="70.875" filterUnits="userSpaceOnUse"><feOffset input="SourceAlpha"/><feGaussianBlur stdDeviation="1.5" result="p"/><feFlood flood-opacity="0.161"/><feComposite operator="in" in2="p"/><feComposite in="SourceGraphic"/></filter><linearGradient id="q" x2="1" y2="1" gradientUnits="objectBoundingBox"><stop offset="0" stop-color="#39c0e8"/><stop offset="1" stop-color="#39ff5f"/></linearGradient><linearGradient id="r" x1="-0.086" y1="0.723" x2="0.412" y2="0.742" xlink:href="#d"/></defs><g transform="translate(592 683)"><g transform="translate(619 48)"><g class="ag" transform="matrix(1, 0, 0, 1, -1211, -731)"><rect class="a" width="202.634" height="382.676" rx="5" transform="translate(797 880)"/></g><g class="b" transform="translate(-326.614 495.582)"><circle class="z" cx="13.931" cy="13.931" r="13.931"/><circle class="h" cx="13.931" cy="13.931" r="13.431"/></g></g><g class="c" transform="translate(-1781 -691)"><rect class="d" width="180" height="319.5" transform="translate(1997 915)"/><g transform="translate(1997 943.125)"><rect class="e" width="180" height="67.5"/><text class="f" transform="translate(28.125 37.563)"><tspan x="0" y="0">Developing Time Tracker</tspan></text></g><g transform="translate(2070.125 993.75)"><g class="af" transform="matrix(1, 0, 0, 1, -881.13, -985.75)"><circle class="g" cx="16.875" cy="16.875" r="16.875" transform="translate(881.13 985.75)"/></g><g transform="translate(10.125 10.125)"><rect class="h" width="13.5" height="13.5"/><path class="i" d="M8.375,5V8.375H5V9.5H8.375v3.375H9.5V9.5h3.375V8.375H9.5V5Z" transform="translate(-2.188 -2.188)"/></g></g><g transform="translate(2002.625 1072.5)"><text class="j" transform="translate(0 7)"><tspan x="0" y="0">Tasks</tspan></text><g transform="translate(0 15.188)"><g class="ae" transform="matrix(1, 0, 0, 1, -813.63, -1079.69)"><rect class="g" width="168.75" height="37.688" rx="1" transform="translate(813.63 1079.69)"/></g><g transform="translate(131.063)"><rect class="k" width="37.688" height="37.688"/><g transform="translate(11.306 11.306)"><path class="l" d="M8,5v8.794l6.909-4.4Z" transform="translate(-2.975 -1.86)"/><path class="h" d="M0,0H15.075V15.075H0Z"/></g></g><text class="m" transform="translate(5.625 7.813)"><tspan x="0" y="0">DEVELOPING TIME TRACKER</tspan></text><text class="n" transform="translate(5.625 33.5)"><tspan x="0" y="0">132:21</tspan></text><text class="o" transform="translate(5.625 17.688)"><tspan x="0" y="0">Meeting with Veljko to discuss </tspan><tspan x="0" y="9">about future of Time Tracker</tspan></text></g><g transform="translate(0 58.5)"><g class="ad" transform="matrix(1, 0, 0, 1, -813.63, -1123)"><rect class="g" width="168.75" height="37.688" rx="1" transform="translate(813.63 1123)"/></g><g transform="translate(131.063)"><rect class="k" width="37.688" height="37.688"/><g transform="translate(11.306 11.306)"><path class="l" d="M8,5v8.794l6.909-4.4Z" transform="translate(-2.975 -1.86)"/><path class="h" d="M0,0H15.075V15.075H0Z"/></g></g><text class="m" transform="translate(5.625 7.813)"><tspan x="0" y="0">DEVELOPING TIME TRACKER</tspan></text><text class="n" transform="translate(5.625 33.5)"><tspan x="0" y="0">132:21</tspan></text><text class="o" transform="translate(5.625 17.688)"><tspan x="0" y="0">Updating CSS &amp; HTML for new </tspan><tspan x="0" y="9">time tracker.</tspan></text></g><g transform="translate(0 101.813)"><g class="ac" transform="matrix(1, 0, 0, 1, -813.63, -1166.31)"><rect class="g" width="168.75" height="37.688" rx="1" transform="translate(813.63 1166.31)"/></g><g transform="translate(131.063)"><rect class="k" width="37.688" height="37.688"/><g transform="translate(11.306 11.306)"><path class="l" d="M8,5v8.794l6.909-4.4Z" transform="translate(-2.975 -1.86)"/><path class="h" d="M0,0H15.075V15.075H0Z"/></g></g><text class="m" transform="translate(5.625 7.813)"><tspan x="0" y="0">DEVELOPING TIME TRACKER</tspan></text><text class="n" transform="translate(5.625 33.5)"><tspan x="0" y="0">132:21</tspan></text><text class="o" transform="translate(5.625 17.688)"><tspan x="0" y="0">Updatind DataBase 14 Sep, 2017.</tspan></text></g></g><g transform="translate(2002.625 1044.375)"><g class="ab" transform="matrix(1, 0, 0, 1, -813.63, -1036.38)"><rect class="g" width="168.75" height="22.5" rx="1" transform="translate(813.63 1036.38)"/></g><text class="p" transform="translate(5.625 13.75)"><tspan x="0" y="0">Project Time</tspan></text><text class="q" transform="translate(132.75 13.75)"><tspan x="0" y="0">04:29:31</tspan></text></g><g transform="translate(2002.625 1223.25)"><g class="aa" transform="matrix(1, 0, 0, 1, -813.63, -1215.25)"><rect class="g" width="168.75" height="61.875" rx="1" transform="translate(813.63 1215.25)"/></g><text class="p" transform="translate(5.625 12.625)"><tspan x="0" y="0">Notes</tspan></text><text class="r" transform="translate(5.625 25.563)"><tspan x="0" y="0">Lorem ipsum dolor sit amet, consectetur </tspan><tspan x="0" y="8">adipiscing elit. Phasellus tempor lacinia </tspan><tspan x="0" y="16">enim at accumsan. Praesent sit amet </tspan><tspan x="0" y="24">tristique dui.</tspan></text></g><g transform="translate(1997 915)"><rect class="g" width="180" height="28.125"/><g transform="translate(5.625 2.813)"><rect class="h" width="22.5" height="22.5"/><path class="s" d="M3,17.25H19.875V15.375H3Zm0-4.687H19.875V10.687H3v1.875ZM3,6V7.875H19.875V6Z" transform="translate(-0.188 -0.375)"/></g><path class="t" d="M5.571-8.653a3.819,3.819,0,0,1-.225,1.294,2.351,2.351,0,0,1-.72,1.041,1.942,1.942,0,0,1-1.282.411,1.808,1.808,0,0,1-1.755-.945l-.113.832H.689q.045-.326.1-.709a5.175,5.175,0,0,0,.056-.754v-5.636H-.02v-.641H1.634v3.769a2.316,2.316,0,0,1,.647-.8,1.777,1.777,0,0,1,1.142-.338,2.031,2.031,0,0,1,1.541.641,2.564,2.564,0,0,1,.607,1.834Zm-.832.079A2,2,0,0,0,4.3-9.98a1.406,1.406,0,0,0-1.069-.472,1.4,1.4,0,0,0-1.148.529,1.831,1.831,0,0,0-.45,1.08v.754a1.445,1.445,0,0,0,.444,1.069,1.5,1.5,0,0,0,1.1.439A1.294,1.294,0,0,0,4.368-7.19a2.6,2.6,0,0,0,.371-1.384ZM10.892-7.46a1.767,1.767,0,0,1-.641,1.1,2.194,2.194,0,0,1-1.463.456,2.291,2.291,0,0,1-1.71-.664A2.567,2.567,0,0,1,6.426-8.45a2.932,2.932,0,0,1,.619-1.924,2.055,2.055,0,0,1,1.676-.754,1.927,1.927,0,0,1,1.575.652,2.392,2.392,0,0,1,.551,1.541,2.743,2.743,0,0,1-.068.6H7.259q.068,1.755,1.586,1.755a1.416,1.416,0,0,0,.934-.281,1.355,1.355,0,0,0,.45-.742Zm-.877-1.462A1.6,1.6,0,0,0,9.751-9.98,1.158,1.158,0,0,0,8.7-10.475a1.168,1.168,0,0,0-1.024.461,2.363,2.363,0,0,0-.4,1.091Zm7.222-2.171a2.184,2.184,0,0,1-.7,1.749,2.623,2.623,0,0,1-1.777.6H13.334v2h1.26v.72h-3v-.72h.922v-5.873H11.59v-.72H14.7a2.5,2.5,0,0,1,1.952.664,2.29,2.29,0,0,1,.591,1.575Zm-.878.022a1.519,1.519,0,0,0-.416-1.125,1.8,1.8,0,0,0-1.316-.416H13.334v3.15h1.328q1.7,0,1.7-1.609Zm4.41-.045a1.307,1.307,0,0,1,.855.259l.191,1.26-.641.079-.191-.855a1.143,1.143,0,0,0-.383-.068.9.9,0,0,0-.731.366,1.475,1.475,0,0,0-.293.951v2.464h1.159v.641H17.912v-.641h.878v-3.724h-.9v-.641h1.642v.9a1.626,1.626,0,0,1,.478-.7,1.128,1.128,0,0,1,.759-.287Zm6.885,2.587A2.686,2.686,0,0,1,26.98-6.65a2.355,2.355,0,0,1-1.834.743,2.275,2.275,0,0,1-1.783-.72,2.672,2.672,0,0,1-.647-1.856,2.892,2.892,0,0,1,.63-1.873,2.23,2.23,0,0,1,1.845-.782,2.225,2.225,0,0,1,1.845.771,2.847,2.847,0,0,1,.619,1.839Zm-.832-.011a2.137,2.137,0,0,0-.433-1.389,1.482,1.482,0,0,0-1.221-.534,1.432,1.432,0,0,0-1.209.551,2.211,2.211,0,0,0-.422,1.384,2.262,2.262,0,0,0,.416,1.384,1.417,1.417,0,0,0,1.215.563A1.454,1.454,0,0,0,26.4-7.139a2.233,2.233,0,0,0,.427-1.4ZM34.09-6.02H32.436V-7.032a2.588,2.588,0,0,1-.675.788,1.744,1.744,0,0,1-1.114.337,1.993,1.993,0,0,1-1.558-.658A2.64,2.64,0,0,1,28.5-8.394a3.578,3.578,0,0,1,.517-1.867,1.868,1.868,0,0,1,1.744-.866,1.766,1.766,0,0,1,1.676.911v-2.9H31.221v-.641h2v7.1h.866ZM32.436-8.236v-.8a1.382,1.382,0,0,0-.461-1.024,1.5,1.5,0,0,0-1.035-.394,1.343,1.343,0,0,0-1.221.607,2.535,2.535,0,0,0-.388,1.4,2,2,0,0,0,.433,1.395,1.411,1.411,0,0,0,1.086.473,1.384,1.384,0,0,0,1.119-.546A1.871,1.871,0,0,0,32.436-8.236ZM40.39-6.02H38.7v-.945a1.913,1.913,0,0,1-.692.765,1.9,1.9,0,0,1-1.052.293,1.763,1.763,0,0,1-1.232-.456,1.883,1.883,0,0,1-.5-1.457v-2.565h-.877v-.641h1.665v2.981a1.547,1.547,0,0,0,.338,1.136,1.2,1.2,0,0,0,.866.326,1.318,1.318,0,0,0,1.052-.484A1.673,1.673,0,0,0,38.7-8.09v-2.3H37.656v-.641H39.49v4.365h.9Zm4.984-1.687a2.458,2.458,0,0,1-.591,1.226,1.9,1.9,0,0,1-1.524.574A2.144,2.144,0,0,1,41.6-6.577a2.656,2.656,0,0,1-.619-1.873,3.121,3.121,0,0,1,.585-1.856,2.013,2.013,0,0,1,1.755-.821,3.488,3.488,0,0,1,.911.113,2.3,2.3,0,0,1,.8.405l.191,1.2-.653.079-.191-.844a1.975,1.975,0,0,0-1.069-.281,1.237,1.237,0,0,0-1.148.574,2.615,2.615,0,0,0-.349,1.384,2.239,2.239,0,0,0,.394,1.406,1.353,1.353,0,0,0,1.136.506q1.125,0,1.35-1.271Zm4.5.338A1.474,1.474,0,0,1,49.4-6.294a1.474,1.474,0,0,1-1.111.386,1.5,1.5,0,0,1-1.153-.428,1.631,1.631,0,0,1-.4-1.159v-2.9h-.81v-.63h.81v-1.609h.788v1.609H49.48v.63H47.522v2.8a1.222,1.222,0,0,0,.2.726.74.74,0,0,0,.647.276.923.923,0,0,0,.546-.18,1.223,1.223,0,0,0,.366-.787Zm1.237-4.95v-1.024h.855v1.024Zm1.744,6.3H50.313v-.641h.877v-3.724h-.9v-.641h1.688v4.365h.877Zm5.7-4.365h-.608L56.118-6.02H55.51L53.6-10.385h-.585v-.641h2.306v.641h-.866l1.4,3.3h.068l1.249-3.3h-.8v-.641h2.194Zm4.8,2.925a1.767,1.767,0,0,1-.641,1.1,2.194,2.194,0,0,1-1.463.456,2.291,2.291,0,0,1-1.71-.664A2.567,2.567,0,0,1,58.9-8.45a2.932,2.932,0,0,1,.619-1.924,2.055,2.055,0,0,1,1.676-.754,1.927,1.927,0,0,1,1.575.652,2.392,2.392,0,0,1,.551,1.541,2.743,2.743,0,0,1-.068.6H59.729q.068,1.755,1.586,1.755a1.416,1.416,0,0,0,.934-.281,1.354,1.354,0,0,0,.45-.743Zm-.878-1.463a1.6,1.6,0,0,0-.264-1.058,1.158,1.158,0,0,0-1.052-.495,1.168,1.168,0,0,0-1.024.461,2.363,2.363,0,0,0-.405,1.091Z" transform="translate(107.458 23.885)"/></g></g><g transform="translate(-594 -680)"><path class="g" d="M2,0H178a2,2,0,0,1,2,2v8a0,0,0,0,1,0,0H0a0,0,0,0,1,0,0V2A2,2,0,0,1,2,0Z" transform="translate(810 894)"/><g transform="translate(810 894)"><rect class="h" width="180" height="9.6"/><g transform="translate(149.28 1.44)"><text class="u" transform="translate(0 4)"><tspan x="0" y="0">100%</tspan></text></g><path class="v" d="M302.11,8.709V7l.816.894-.816.812Zm.853-3.365-.853.863V4.571l.853.772Zm-.648,1.277,1.266-1.277L301.692,3.5h-.045V6.064l-1.282-1.352L300,5.1l1.543,1.525L300,8.145l.365.384,1.282-1.352V9.74h.082L303.6,7.892,302.315,6.62Z" transform="translate(-156.96 -1.82)"/><text class="w" transform="translate(86.72 5.44)"><tspan x="-7.912" y="0">9:41 AM</tspan></text><g transform="translate(3.36 2.4)"><path class="v" d="M66.378,6.23a3.7,3.7,0,0,1,2.43.905l.452-.5a4.222,4.222,0,0,0-5.76,0l.451.5a3.7,3.7,0,0,1,2.427-.9Zm0,1.44a2.25,2.25,0,0,1,1.461.536l.478-.528a2.916,2.916,0,0,0-3.876,0l.477.529a2.249,2.249,0,0,1,1.459-.535Zm.983,1.064a1.48,1.48,0,0,0-1.965,0l.982,1.087.983-1.086Z" transform="translate(-54.14 -5.26)"/><path class="v" d="M5.76.239A.242.242,0,0,1,6,0h.714A.239.239,0,0,1,6.96.239V4.321a.242.242,0,0,1-.243.239H6a.239.239,0,0,1-.243-.239Zm-1.92,1.2A.244.244,0,0,1,4.083,1.2H4.8a.245.245,0,0,1,.243.242V4.318A.244.244,0,0,1,4.8,4.56H4.083a.245.245,0,0,1-.243-.242ZM1.92,2.4a.242.242,0,0,1,.243-.239h.714A.238.238,0,0,1,3.12,2.4V4.321a.242.242,0,0,1-.243.239H2.163a.238.238,0,0,1-.243-.239ZM0,3.358A.242.242,0,0,1,.243,3.12H.957a.239.239,0,0,1,.243.238v.964a.242.242,0,0,1-.243.238H.243A.239.239,0,0,1,0,4.322Z"/></g><g transform="translate(165.6 2.4)"><path class="x" d="M23,3.5a.96.96,0,0,1,0,1.86Z" transform="translate(-11.96 -1.82)"/><rect width="8.64" height="3.12" rx="1" transform="translate(0.96 0.96)"/><g class="y" transform="translate(0 0)"><rect class="z" width="10.56" height="5.04" rx="2.5"/><rect class="h" x="0.5" y="0.5" width="9.56" height="4.04" rx="2"/></g></g></g></g></g></svg>