<svg xmlns="http://www.w3.org/2000/svg" xmlns:xlink="http://www.w3.org/1999/xlink" viewBox="675 1550 180 180"><defs><style>.a{fill:url(#a);}.b{fill:none;}.c{fill:#fff;}</style><linearGradient id="a" x2="1" y2="1" gradientUnits="objectBoundingBox"><stop offset="0" stop-color="#6a11cb"/><stop offset="1" stop-color="#2575fc"/></linearGradient></defs><g transform="translate(6)"><path class="a" d="M3,0H177a3,3,0,0,1,3,3V177a3,3,0,0,1-3,3H3a3,3,0,0,1-3-3V3A3,3,0,0,1,3,0Z" transform="translate(669 1550)"/><g transform="translate(707 1592)"><path class="b" d="M0,0H96V96H0Z"/><path class="c" d="M74,4H10a7.938,7.938,0,0,0-7.96,8L2,60a7.972,7.972,0,0,0,8,8H74a7.972,7.972,0,0,0,8-8V12A7.972,7.972,0,0,0,74,4Zm0,56H10V36H74Zm0-40H10V12H74Z" transform="translate(6 12)"/></g></g></svg>