<svg xmlns="http://www.w3.org/2000/svg" xmlns:xlink="http://www.w3.org/1999/xlink" viewBox="416 1537 198 198"><defs><style>.a{fill:url(#a);}.b{fill:none;}.c{fill:#fff;}</style><linearGradient id="a" x2="1" y2="1" gradientUnits="objectBoundingBox"><stop offset="0" stop-color="#4facfe"/><stop offset="1" stop-color="#00f2fe"/></linearGradient></defs><g transform="translate(6 -14)"><path class="a" d="M3.3,0H194.7A3.3,3.3,0,0,1,198,3.3V194.7a3.3,3.3,0,0,1-3.3,3.3H3.3A3.3,3.3,0,0,1,0,194.7V3.3A3.3,3.3,0,0,1,3.3,0Z" transform="translate(410 1551)"/><g transform="translate(456.2 1597.2)"><path class="b" d="M0,0H105.6V105.6H0Z"/><path class="c" d="M101.2,41.644l-22-.044A4.413,4.413,0,0,0,74.8,46V85.6A4.413,4.413,0,0,0,79.2,90h22a4.413,4.413,0,0,0,4.4-4.4V46A4.375,4.375,0,0,0,101.2,41.644Zm0,39.556h-22V50.4h22ZM88,2H8.8A8.77,8.77,0,0,0,0,10.8V63.6a8.8,8.8,0,0,0,8.8,8.8H39.6v8.8H30.8V90H66V81.2H57.2V72.4H66V63.6H8.8V10.8H88v22h8.8v-22A8.8,8.8,0,0,0,88,2Z" transform="translate(0 6.8)"/></g></g></svg>