<svg xmlns="http://www.w3.org/2000/svg" viewBox="1552.743 3170.904 57.096 57.096"><defs><style>.a{fill:#fff;fill-rule:evenodd;}</style></defs><path class="a" d="M36.514,21.4A5.772,5.772,0,0,0,32.625,27.2l.06.988-1-.121A16.2,16.2,0,0,1,22.2,23.394l-1.316-1.31-.339.968a5.826,5.826,0,0,0,1.236,5.968c.8.847.618.968-.757.463a2.369,2.369,0,0,0-.937-.222,7.244,7.244,0,0,0,.718,2.7,6.441,6.441,0,0,0,2.732,2.581l.977.463-1.156.02c-1.116,0-1.156.02-1.036.444a6.032,6.032,0,0,0,3.728,3.307l1.236.423-1.076.645a11.182,11.182,0,0,1-5.344,1.491,5.859,5.859,0,0,0-1.636.162,15.235,15.235,0,0,0,3.848,1.774A16.824,16.824,0,0,0,36.155,41.78a17.529,17.529,0,0,0,6.64-7.823,20.8,20.8,0,0,0,1.356-6.047c0-.928.06-1.049,1.176-2.157a13.143,13.143,0,0,0,1.4-1.552c.2-.383.179-.383-.837-.041-1.695.605-1.935.524-1.1-.383a5.876,5.876,0,0,0,1.356-2.157c0-.06-.3.04-.639.222a11.022,11.022,0,0,1-1.755.685l-1.076.344L41.7,22.2A8.1,8.1,0,0,0,40,21.317,6.812,6.812,0,0,0,36.514,21.4ZM32.548,61.1A28.548,28.548,0,1,1,61.1,32.548,28.549,28.549,0,0,1,32.548,61.1Z" transform="translate(1548.743 3166.904)"/></svg>